<!DOCTYPE svg PUBLIC "-//W3C//DTD SVG 1.1//EN" "http://www.w3.org/Graphics/SVG/1.1/DTD/svg11.dtd">
<!-- Uploaded to: SVG Repo, www.svgrepo.com, Transformed by: SVG Repo Mixer Tools -->
<svg fill="#007a31" width="800px" height="800px" viewBox="-4.68 -4.68 45.36 45.36" version="1.1" preserveAspectRatio="xMidYMid meet" xmlns="http://www.w3.org/2000/svg" xmlns:xlink="http://www.w3.org/1999/xlink" stroke="#007a31" stroke-width="0.288">
<g id="SVGRepo_bgCarrier" stroke-width="0" transform="translate(0,0), scale(1)">
<path transform="translate(-4.68, -4.68), scale(1.4175)" d="M16,29.877258667988436C18.52621985443856,30.168585345893582,21.123898096378518,29.940378393798476,23.43109852341669,28.871040198607773C25.845761699870884,27.7518953107847,28.03705207378104,26.02237398351396,29.33289082249057,23.697748105440823C30.621153013940937,21.386713934737827,30.568943696415143,18.645587009673907,30.605927291725365,16C30.64334541935118,13.323329126256612,30.873791314576657,10.503607322962928,29.549861065399234,8.176984066409727C28.223436901519403,5.8459781016662005,25.808701113816348,4.344010063064148,23.355934952518773,3.259146925065737C21.050397520055476,2.239403333841479,18.503433032427978,1.8868650224939307,16,2.1838547470314165C13.655727885868563,2.4619627372985105,11.486743428023514,3.4910035926507748,9.587128903184622,4.892581437925804C7.815091547961674,6.200030010046445,6.768441987370209,8.13833002944241,5.494803800591471,9.934822146381645C4.092903823910247,11.912230081373659,2.22412642278267,13.630689207043687,1.712431149823324,15.999999999999998C1.1516900551734954,18.596408444276424,0.9917062663193015,21.607929352424364,2.501845900198882,23.79316290308321C4.007281930733592,25.97159014814779,7.082566314761051,26.175984696314945,9.496666020580694,27.264104870943314C11.663457804473243,28.240754612703658,13.638921087264439,29.60497623987332,16,29.877258667988436" fill="#d6fffe" strokewidth="0"/>
</g>
<g id="SVGRepo_tracerCarrier" stroke-linecap="round" stroke-linejoin="round"/>
<g id="SVGRepo_iconCarrier"> <title>savings-line</title> <path class="clr-i-outline clr-i-outline-path-1" d="M19.72,10.47a11.65,11.65,0,0,0-6.31.52A.8.8,0,1,0,14,12.48,10.11,10.11,0,0,1,19.44,12a.8.8,0,1,0,.28-1.57Z"/>
<circle class="clr-i-outline clr-i-outline-path-2" cx="25.38" cy="16.71" r="1.36"/>
<path class="clr-i-outline clr-i-outline-path-3" d="M35.51,18.63a1,1,0,0,0-.84-.44,3.42,3.42,0,0,1-2.09-1.12,17.35,17.35,0,0,1-2.63-3.78l2.88-4.5A1.89,1.89,0,0,0,33,7a1.77,1.77,0,0,0-1.33-1,10.12,10.12,0,0,0-5.39.75,12.72,12.72,0,0,0-2.72,1.63,16.94,16.94,0,0,0-5.16-1.39C11.31,6.3,4.83,10.9,4,17H4a2.56,2.56,0,0,1-1.38-1.53,1.81,1.81,0,0,1,.14-1.4,1.19,1.19,0,0,1,.43-.43,1.08,1.08,0,0,0-1.12-1.85A3.31,3.31,0,0,0,.91,13a4,4,0,0,0-.33,3.08A4.76,4.76,0,0,0,3,18.95l.92.46a17.58,17.58,0,0,0,1.82,7l.17.38A23,23,0,0,0,9.2,31.88a1,1,0,0,0,.75.34h4.52a1,1,0,0,0,.92-1.38L15,29.94l1.18.13a20.33,20.33,0,0,0,4,0c.37.6.77,1.2,1.21,1.79a1,1,0,0,0,.8.41h4.34a1,1,0,0,0,.92-1.39c-.17-.4-.34-.83-.47-1.2-.18-.53-.32-1-.43-1.45A13.18,13.18,0,0,0,29.56,26a12.5,12.5,0,0,0,3,0,1,1,0,0,0,.78-.62l2.26-5.81A1,1,0,0,0,35.51,18.63Zm-3.78,5.44a11.37,11.37,0,0,1-2.35-.11h0a8.2,8.2,0,0,1-2.53-.87,1,1,0,0,0-.93,1.77,11.72,11.72,0,0,0,1.29.58,8,8,0,0,1-1.8,1.16l-1.06.48s.49,2.19.82,3.16H22.79c-.24-.34-1.45-2.36-1.45-2.36l-.67.09a18.53,18.53,0,0,1-4.25.12c-.66-.06-1.76-.2-2.62-.35l-1.55-.27s.63,2.43.75,2.74v0H10.42A20.57,20.57,0,0,1,7.76,26l-.18-.39A14.62,14.62,0,0,1,6,17.48c.54-5.19,6.12-9.11,12.19-8.54a15.47,15.47,0,0,1,5.08,1.48l.62.29.5-.47A10.29,10.29,0,0,1,27,8.54a8.25,8.25,0,0,1,4-.65l-3.38,5.29.25.5h0a21.16,21.16,0,0,0,3.31,4.84,6.49,6.49,0,0,0,2.14,1.39Z"/> <rect x="0" y="0" width="36" height="36" fill-opacity="0"/> </g>
</svg>